<svg id="Layer_1" xmlns="http://www.w3.org/2000/svg" viewBox="0 0 500 200"><defs><style>.cls-1{fill:#ed1c24;stroke:#333;stroke-miterlimit:10;stroke-width:2px;}.cls-2{fill:#333;}</style></defs><path class="cls-1" d="M166.26,100A75.58,75.58,0,1,1,90.69,24.42,75.57,75.57,0,0,1,166.26,100ZM121.19,79.07A30.5,30.5,0,1,0,80.5,107.82a10.35,10.35,0,0,0-.37,2.74V146.2a10.56,10.56,0,0,0,21.12,0V110.56a10.36,10.36,0,0,0-.38-2.74A30.5,30.5,0,0,0,121.19,79.07Z"/><path class="cls-2" d="M219.68,120l-12.16,13.86v33.69H177.88V39.83h29.64V96.15l10.3-16.23,26.51-40.09H281l-41.55,56.5L281,167.57H245.85Z"/><path class="cls-2" d="M364.74,113.35H318.13v30.53h55.05v23.69H288.49V39.83h84.86V63.6H318.13V90.54h46.61Z"/><path class="cls-2" d="M430.26,95.28l22.63-55.45h32l-39.6,81.86v45.88H415.23V121.69L375.71,39.83h31.84Z"/></svg>